<?xml version="1.0" encoding="UTF-8"?> <svg xmlns="http://www.w3.org/2000/svg" width="113" height="122" viewBox="0 0 113 122" fill="none"> <path d="M38.376 58.024C34.68 62.776 29.448 65.152 22.68 65.152C15.912 65.152 10.68 62.776 6.984 58.024C3.288 53.224 1.44 46.816 1.44 38.8C1.44 30.784 3.288 24.4 6.984 19.648C10.68 14.848 15.912 12.448 22.68 12.448C29.448 12.448 34.68 14.848 38.376 19.648C42.072 24.4 43.92 30.784 43.92 38.8C43.92 46.816 42.072 53.224 38.376 58.024ZM15.84 38.8C15.84 47.056 18.12 51.184 22.68 51.184C27.24 51.184 29.52 47.056 29.52 38.8C29.52 30.544 27.24 26.416 22.68 26.416C18.12 26.416 15.84 30.544 15.84 38.8ZM70.3187 29.872C75.0227 30.64 78.7427 32.608 81.4787 35.776C84.2627 38.896 85.6547 42.76 85.6547 47.368C85.6547 52.648 83.8787 56.944 80.3267 60.256C76.7747 63.52 72.0707 65.152 66.2147 65.152C60.3107 65.152 55.5827 63.52 52.0307 60.256C48.5267 56.944 46.7747 52.648 46.7747 47.368C46.7747 43.624 47.6867 40.36 49.5107 37.576L64.4867 13.6H80.6147L70.3187 29.872ZM61.1747 47.368C61.1747 50.632 62.8547 52.264 66.2147 52.264C69.5747 52.264 71.2547 50.632 71.2547 47.368C71.2547 44.104 69.5747 42.472 66.2147 42.472C62.8547 42.472 61.1747 44.104 61.1747 47.368Z" fill="url(#paint0_linear_725_56)"></path> <g filter="url(#filter0_d_725_56)"> <ellipse cx="68" cy="77" rx="35" ry="35" transform="rotate(-180 68 77)" fill="white"></ellipse> </g> <path d="M72.755 80.3554C72.5311 80.1549 72.1871 80.1744 71.9876 80.3978C70.8539 81.6646 69.2191 82.3907 67.5012 82.3907C65.7838 82.3907 64.1485 81.6646 63.0148 80.3978C62.8142 80.1744 62.4713 80.1549 62.2474 80.3554C62.0235 80.5554 62.005 80.8989 62.205 81.1228C63.5447 82.6195 65.4751 83.4777 67.5012 83.4777C69.5278 83.4777 71.4583 82.619 72.7974 81.1228C72.9974 80.8989 72.9784 80.5554 72.755 80.3554Z" fill="#F4AA56"></path> <path d="M67.5 65C60.6076 65 55 70.6076 55 77.5C55 84.3924 60.6076 90 67.5 90C74.3924 90 80 84.3924 80 77.5C80 70.6076 74.3924 65 67.5 65ZM67.5 88.913C61.2065 88.913 56.087 83.7935 56.087 77.5C56.087 71.2065 61.2065 66.087 67.5 66.087C73.7935 66.087 78.913 71.2065 78.913 77.5C78.913 83.7935 73.7935 88.913 67.5 88.913Z" fill="#F4AA56"></path> <path d="M71.8463 73.6958C70.3479 73.6958 69.1289 74.9148 69.1289 76.4132C69.1289 76.7132 69.3724 76.9567 69.6724 76.9567C69.9724 76.9567 70.2159 76.7132 70.2159 76.4132C70.2159 75.5143 70.9474 74.7828 71.8463 74.7828C72.7452 74.7828 73.4767 75.5143 73.4767 76.4132C73.4767 76.7132 73.7202 76.9567 74.0202 76.9567C74.3202 76.9567 74.5637 76.7132 74.5637 76.4132C74.5637 74.9148 73.3447 73.6958 71.8463 73.6958Z" fill="#F4AA56"></path> <path d="M64.7814 76.4132C64.7814 76.7132 65.0249 76.9567 65.3249 76.9567C65.6249 76.9567 65.8684 76.7132 65.8684 76.4132C65.8684 74.9148 64.6494 73.6958 63.151 73.6958C61.6526 73.6958 60.4336 74.9148 60.4336 76.4132C60.4336 76.7132 60.6771 76.9567 60.9771 76.9567C61.2771 76.9567 61.5206 76.7132 61.5206 76.4132C61.5206 75.5143 62.2521 74.7828 63.151 74.7828C64.0499 74.7828 64.7814 75.5143 64.7814 76.4132Z" fill="#F4AA56"></path> <defs> <filter id="filter0_d_725_56" x="23" y="32" width="90" height="90" filterUnits="userSpaceOnUse" color-interpolation-filters="sRGB"> <feFlood flood-opacity="0" result="BackgroundImageFix"></feFlood> <feColorMatrix in="SourceAlpha" type="matrix" values="0 0 0 0 0 0 0 0 0 0 0 0 0 0 0 0 0 0 127 0" result="hardAlpha"></feColorMatrix> <feOffset></feOffset> <feGaussianBlur stdDeviation="5"></feGaussianBlur> <feColorMatrix type="matrix" values="0 0 0 0 0 0 0 0 0 0 0 0 0 0 0 0 0 0 0.1 0"></feColorMatrix> <feBlend mode="normal" in2="BackgroundImageFix" result="effect1_dropShadow_725_56"></feBlend> <feBlend mode="normal" in="SourceGraphic" in2="effect1_dropShadow_725_56" result="shape"></feBlend> </filter> <linearGradient id="paint0_linear_725_56" x1="43.5" y1="0" x2="43.5" y2="78" gradientUnits="userSpaceOnUse"> <stop stop-color="#FECD72"></stop> <stop offset="1" stop-color="#F5AB56"></stop> </linearGradient> </defs> </svg> 