<?xml version="1.0" encoding="UTF-8"?> <svg xmlns="http://www.w3.org/2000/svg" width="113" height="124" viewBox="0 0 113 124" fill="none"> <path d="M38.376 58.024C34.68 62.776 29.448 65.152 22.68 65.152C15.912 65.152 10.68 62.776 6.984 58.024C3.288 53.224 1.44 46.816 1.44 38.8C1.44 30.784 3.288 24.4 6.984 19.648C10.68 14.848 15.912 12.448 22.68 12.448C29.448 12.448 34.68 14.848 38.376 19.648C42.072 24.4 43.92 30.784 43.92 38.8C43.92 46.816 42.072 53.224 38.376 58.024ZM15.84 38.8C15.84 47.056 18.12 51.184 22.68 51.184C27.24 51.184 29.52 47.056 29.52 38.8C29.52 30.544 27.24 26.416 22.68 26.416C18.12 26.416 15.84 30.544 15.84 38.8ZM71.0173 34.192C74.2813 35.152 76.8733 36.832 78.7933 39.232C80.7613 41.584 81.7453 44.56 81.7453 48.16C81.7453 53.728 79.9693 57.952 76.4173 60.832C72.8653 63.712 68.4013 65.152 63.0253 65.152C58.6093 65.152 54.7453 64.144 51.4333 62.128C48.1213 60.112 45.7453 57.136 44.3053 53.2L56.9773 45.928C57.9853 49.432 60.0013 51.184 63.0253 51.184C64.3213 51.184 65.3533 50.848 66.1213 50.176C66.9373 49.504 67.3453 48.592 67.3453 47.44C67.3453 45.04 65.9053 43.84 63.0253 43.84H59.9293L54.3133 35.488L61.0813 27.568H45.8893V13.6H79.0093V24.688L71.0173 34.192Z" fill="url(#paint0_linear_723_53)"></path> <g filter="url(#filter0_d_723_53)"> <ellipse cx="68" cy="79" rx="35" ry="35" transform="rotate(-180 68 79)" fill="white"></ellipse> </g> <g clip-path="url(#clip0_723_53)"> <path d="M82.9557 71.9289C82.8696 71.6089 82.6597 71.3361 82.3725 71.1708C82.085 71.0046 81.7433 70.9596 81.4227 71.0457C81.1025 71.1319 80.8298 71.3416 80.6644 71.6289L80.4561 71.9914C80.2582 71.8776 80.0053 71.9446 79.8896 72.1415L78.8314 73.9452L78.4689 73.7369C78.3729 73.6813 78.2586 73.6663 78.1516 73.6952C78.0444 73.7243 77.9532 73.7946 77.8981 73.8911C77.7852 74.0902 77.854 74.3432 78.0523 74.4576L78.4148 74.6659L74.8737 80.8023L73.9988 83.1396L73.5822 83.9184C73.3384 84.3428 73.3644 84.8702 73.649 85.2683L72.7116 86.418L72.4492 85.76C72.3308 85.4666 72.0568 85.2657 71.7417 85.241C71.4264 85.2162 71.1244 85.372 70.9618 85.6432L70.8119 85.8973L70.6704 84.2309C70.6378 83.8367 70.3325 83.5197 69.9399 83.4721C69.5471 83.4247 69.1752 83.6601 69.0497 84.0352L68.0249 87.1096C67.9533 87.3271 68.0705 87.5614 68.2873 87.6346C68.328 87.6536 68.3718 87.6649 68.4165 87.6678C68.5955 87.6684 68.755 87.5543 68.8124 87.3846L69.8329 84.3102L69.9787 86.0014C70.0088 86.3623 70.2682 86.6623 70.6209 86.7441C70.9736 86.8259 71.3386 86.6705 71.5243 86.3598L71.6785 86.1056L71.9368 86.7597C72.0465 87.0354 72.2944 87.2321 72.588 87.2758C72.8815 87.3195 73.176 87.2038 73.3615 86.9721L74.3322 85.7433C74.4396 85.7714 74.5503 85.7854 74.6614 85.785C75.1079 85.7884 75.5224 85.5533 75.7486 85.1682L76.1652 84.4725L77.7525 82.5438L81.331 76.3322L81.6935 76.5405C81.7901 76.5959 81.8605 76.6872 81.8891 76.7948C81.918 76.9016 81.903 77.0155 81.8476 77.1113L80.1813 79.9984C80.1184 80.0932 80.097 80.2096 80.1223 80.3206C80.1475 80.4315 80.2169 80.5273 80.3145 80.5857C80.4105 80.6414 80.5248 80.6565 80.6318 80.6276C80.739 80.5985 80.8302 80.5281 80.8853 80.4317L82.5517 77.5446C82.7179 77.2572 82.7628 76.9154 82.6766 76.5949C82.5903 76.2747 82.3806 76.0019 82.0934 75.8365L81.7309 75.6282L82.7724 73.8243C82.8861 73.6264 82.8192 73.3738 82.6225 73.2578L82.8308 72.8953C83.0014 72.6034 83.0466 72.2548 82.9557 71.9289ZM81.3851 72.0455C81.4402 71.949 81.5317 71.8785 81.6393 71.8498C81.7463 71.8233 81.8594 71.8382 81.9559 71.8915C82.0525 71.9466 82.1229 72.0381 82.1518 72.1455C82.1782 72.2525 82.1633 72.3656 82.1101 72.4621L81.9018 72.8245L81.1768 72.4079L81.3851 72.0455ZM75.7069 83.677L75.4986 83.5562L74.8821 83.1977L75.4736 81.6148L76.7858 82.3729L75.7069 83.677ZM74.4571 84.8808C74.2812 84.7581 74.2271 84.5222 74.3322 84.335L74.5405 83.9727L75.2653 84.3893L75.057 84.7476C74.9986 84.8489 74.9006 84.9209 74.7865 84.9463C74.6724 84.9715 74.5529 84.9479 74.4571 84.8808ZM77.2608 81.6898L75.8194 80.8566L79.1522 75.0825L80.5936 75.9156L77.2608 81.6898ZM81.0102 75.1949L79.5688 74.3618L80.402 72.9204L81.8434 73.7535L81.0102 75.1949Z" fill="#F4AA56"></path> <path d="M64.5724 84.6719L63.0979 86.1426L62.2146 85.2594C62.0521 85.0979 61.7897 85.0979 61.6272 85.2594C61.5483 85.3377 61.5039 85.4441 61.5039 85.5552C61.5039 85.6662 61.5483 85.7728 61.6272 85.8509L62.5104 86.7342C62.6666 86.8892 62.8778 86.976 63.0979 86.9758C63.3192 86.977 63.5322 86.8902 63.6894 86.7342L65.1599 85.2594C65.3015 85.094 65.2919 84.8477 65.1381 84.6939C64.9842 84.5399 64.7378 84.5304 64.5724 84.6719Z" fill="#F4AA56"></path> <path d="M59.668 85.7919C59.668 87.7478 61.2534 89.333 63.209 89.333C65.1647 89.333 66.7501 87.7478 66.7501 85.7919C66.7501 85.5619 66.5636 85.3753 66.3335 85.3753C66.1034 85.3753 65.9169 85.5619 65.9169 85.7919C65.9169 87.2875 64.7045 88.4998 63.209 88.4998C61.7135 88.4998 60.5012 87.2875 60.5012 85.7919C60.5012 84.2964 61.7135 83.0841 63.209 83.0841C63.7953 83.0824 64.3659 83.2726 64.8337 83.6258C65.0178 83.7639 65.279 83.7264 65.4169 83.5424C65.555 83.3583 65.5178 83.0973 65.3337 82.9592C64.2607 82.1544 62.825 82.0251 61.6254 82.6247C60.4257 83.2246 59.668 84.4508 59.668 85.7919Z" fill="#F4AA56"></path> <path d="M72.9981 69.3361C73.2282 69.3361 73.4147 69.1498 73.4147 68.9195C73.4147 68.6895 73.2282 68.5029 72.9981 68.5029H62.1666C61.9365 68.5029 61.75 68.6895 61.75 68.9195V70.5859C61.75 70.8162 61.9365 71.0025 62.1666 71.0025H72.9981C73.2282 71.0025 73.4147 70.8162 73.4147 70.5859C73.4147 70.3558 73.2282 70.1693 72.9981 70.1693H62.5832V69.3361H72.9981Z" fill="#F4AA56"></path> <path d="M63.4166 71.8369C63.1865 71.8369 63 72.0234 63 72.2535C63 72.4838 63.1865 72.6701 63.4166 72.6701H71.7485C71.9786 72.6701 72.1651 72.4838 72.1651 72.2535C72.1651 72.0234 71.9786 71.8369 71.7485 71.8369H63.4166Z" fill="#F4AA56"></path> <path d="M74.2458 74.7529H65.0807C64.8506 74.7529 64.6641 74.9395 64.6641 75.1695C64.6641 75.3998 64.8506 75.5861 65.0807 75.5861H74.2458C74.4758 75.5861 74.6624 75.3998 74.6624 75.1695C74.6624 74.9395 74.4758 74.7529 74.2458 74.7529Z" fill="#F4AA56"></path> <path d="M70.0831 77.669C70.0831 77.439 69.8965 77.2524 69.6665 77.2524H61.3346C61.1045 77.2524 60.918 77.439 60.918 77.669C60.918 77.8993 61.1045 78.0856 61.3346 78.0856H69.6665C69.8965 78.0856 70.0831 77.8993 70.0831 77.669Z" fill="#F4AA56"></path> <path d="M74.2468 77.2524H71.3307C71.1006 77.2524 70.9141 77.439 70.9141 77.669C70.9141 77.8993 71.1006 78.0856 71.3307 78.0856H74.2468C74.4769 78.0856 74.6634 77.8993 74.6634 77.669C74.6634 77.439 74.4769 77.2524 74.2468 77.2524Z" fill="#F4AA56"></path> <path d="M65.5005 80.1677C65.7306 80.1677 65.9171 79.9813 65.9171 79.7511C65.9171 79.521 65.7306 79.3345 65.5005 79.3345H61.3346C61.1045 79.3345 60.918 79.521 60.918 79.7511C60.918 79.9813 61.1045 80.1677 61.3346 80.1677H65.5005Z" fill="#F4AA56"></path> <path d="M67.1627 80.1677H70.0789C70.3089 80.1677 70.4955 79.9813 70.4955 79.7511C70.4955 79.521 70.3089 79.3345 70.0789 79.3345H67.1627C66.9326 79.3345 66.7461 79.521 66.7461 79.7511C66.7461 79.9813 66.9326 80.1677 67.1627 80.1677Z" fill="#F4AA56"></path> <path d="M76.7468 85.1668C76.5167 85.1668 76.3302 85.3534 76.3302 85.5834V89.7494C76.3302 89.9796 76.1437 90.166 75.9136 90.166H59.2498C59.0197 90.166 58.8332 89.9796 58.8332 89.7494V67.2532C58.8332 67.0231 59.0197 66.8366 59.2498 66.8366H75.9136C76.1437 66.8366 76.3302 67.0231 76.3302 67.2532V75.077C76.3302 75.307 76.5167 75.4936 76.7468 75.4936C76.9769 75.4936 77.1634 75.307 77.1634 75.077V67.2532C77.1634 66.563 76.6038 66.0034 75.9136 66.0034H59.2498C58.5596 66.0034 58 66.563 58 67.2532V89.7494C58 90.4398 58.5596 90.9992 59.2498 90.9992H75.9136C76.6038 90.9992 77.1634 90.4398 77.1634 89.7494V85.5834C77.1634 85.3534 76.9769 85.1668 76.7468 85.1668Z" fill="#F4AA56"></path> </g> <defs> <filter id="filter0_d_723_53" x="23" y="34" width="90" height="90" filterUnits="userSpaceOnUse" color-interpolation-filters="sRGB"> <feFlood flood-opacity="0" result="BackgroundImageFix"></feFlood> <feColorMatrix in="SourceAlpha" type="matrix" values="0 0 0 0 0 0 0 0 0 0 0 0 0 0 0 0 0 0 127 0" result="hardAlpha"></feColorMatrix> <feOffset></feOffset> <feGaussianBlur stdDeviation="5"></feGaussianBlur> <feColorMatrix type="matrix" values="0 0 0 0 0 0 0 0 0 0 0 0 0 0 0 0 0 0 0.1 0"></feColorMatrix> <feBlend mode="normal" in2="BackgroundImageFix" result="effect1_dropShadow_723_53"></feBlend> <feBlend mode="normal" in="SourceGraphic" in2="effect1_dropShadow_723_53" result="shape"></feBlend> </filter> <linearGradient id="paint0_linear_723_53" x1="42" y1="0" x2="42" y2="78" gradientUnits="userSpaceOnUse"> <stop stop-color="#FECD72"></stop> <stop offset="1" stop-color="#F5AB56"></stop> </linearGradient> <clipPath id="clip0_723_53"> <rect width="25" height="25" fill="white" transform="translate(58 66)"></rect> </clipPath> </defs> </svg> 