<?xml version="1.0" encoding="UTF-8"?> <svg xmlns="http://www.w3.org/2000/svg" width="106" height="125" viewBox="0 0 106 125" fill="none"> <path d="M38.376 58.024C34.68 62.776 29.448 65.152 22.68 65.152C15.912 65.152 10.68 62.776 6.984 58.024C3.288 53.224 1.44 46.816 1.44 38.8C1.44 30.784 3.288 24.4 6.984 19.648C10.68 14.848 15.912 12.448 22.68 12.448C29.448 12.448 34.68 14.848 38.376 19.648C42.072 24.4 43.92 30.784 43.92 38.8C43.92 46.816 42.072 53.224 38.376 58.024ZM15.84 38.8C15.84 47.056 18.12 51.184 22.68 51.184C27.24 51.184 29.52 47.056 29.52 38.8C29.52 30.544 27.24 26.416 22.68 26.416C18.12 26.416 15.84 30.544 15.84 38.8ZM58.8324 13.6H71.0724V64H56.6724V28.648L47.9604 30.736L44.6484 18.712L58.8324 13.6Z" fill="url(#paint0_linear_722_51)"></path> <g filter="url(#filter0_d_722_51)"> <ellipse cx="61" cy="80" rx="35" ry="35" transform="rotate(-180 61 80)" fill="white"></ellipse> </g> <path d="M66.8074 82.3892C66.3979 81.9629 65.9041 81.7349 65.3806 81.7349C64.8614 81.7349 64.3633 81.9586 63.937 82.385L62.6031 83.7146C62.4934 83.6555 62.3836 83.6007 62.2781 83.5458C62.1261 83.4698 61.9826 83.398 61.8602 83.3221C60.6108 82.5285 59.4753 81.4943 58.3862 80.1562C57.8586 79.4893 57.504 78.9279 57.2465 78.358C57.5926 78.0414 57.9134 77.7122 58.2258 77.3956C58.344 77.2774 58.4622 77.155 58.5804 77.0368C59.4668 76.1503 59.4668 75.0022 58.5804 74.1158L57.428 72.9634C57.2972 72.8325 57.1621 72.6975 57.0355 72.5624C56.7822 72.3007 56.5163 72.0305 56.2419 71.7772C55.8324 71.372 55.3428 71.1567 54.8278 71.1567C54.3128 71.1567 53.8147 71.372 53.3926 71.7772C53.3884 71.7815 53.3884 71.7815 53.3842 71.7857L51.949 73.2335C51.4087 73.7738 51.1005 74.4323 51.033 75.1964C50.9317 76.4289 51.2947 77.5771 51.5733 78.3285C52.2571 80.1731 53.2786 81.8827 54.8025 83.7146C56.6513 85.9223 58.8759 87.6656 61.417 88.894C62.3879 89.3541 63.6837 89.8986 65.1316 89.9915C65.2202 89.9957 65.3131 89.9999 65.3975 89.9999C66.3726 89.9999 67.1915 89.6495 67.8331 88.9531C67.8373 88.9446 67.8458 88.9404 67.85 88.932C68.0695 88.666 68.3228 88.4254 68.5887 88.1679C68.7702 87.9949 68.9559 87.8134 69.1374 87.6234C69.5553 87.1886 69.7748 86.6821 69.7748 86.1629C69.7748 85.6395 69.5511 85.1371 69.1248 84.715L66.8074 82.3892ZM68.3185 86.834C68.3143 86.834 68.3143 86.8383 68.3185 86.834C68.1539 87.0113 67.9851 87.1717 67.8036 87.349C67.5292 87.6107 67.2506 87.8851 66.9889 88.1933C66.5626 88.6491 66.0602 88.8644 65.4017 88.8644C65.3384 88.8644 65.2709 88.8644 65.2076 88.8602C63.9539 88.78 62.7889 88.2903 61.9151 87.8724C59.5259 86.7159 57.428 85.0738 55.6847 82.9928C54.2453 81.2579 53.2829 79.6539 52.6455 77.9317C52.2529 76.8806 52.1094 76.0617 52.1727 75.2892C52.2149 74.7954 52.4049 74.3859 52.7552 74.0356L54.1946 72.5961C54.4015 72.402 54.621 72.2964 54.8362 72.2964C55.1022 72.2964 55.3174 72.4568 55.4525 72.5919C55.4567 72.5961 55.461 72.6004 55.4652 72.6046C55.7227 72.8452 55.9675 73.0942 56.225 73.3602C56.3558 73.4952 56.4909 73.6303 56.626 73.7696L57.7784 74.922C58.2258 75.3694 58.2258 75.7831 57.7784 76.2305C57.656 76.353 57.5378 76.4754 57.4154 76.5936C57.0608 76.9566 56.7231 77.2943 56.3558 77.6235C56.3474 77.632 56.339 77.6362 56.3347 77.6446C55.9717 78.0076 56.0393 78.3622 56.1152 78.6028C56.1195 78.6155 56.1237 78.6282 56.1279 78.6408C56.4276 79.3669 56.8497 80.0507 57.4913 80.8654L57.4956 80.8696C58.6606 82.3048 59.8889 83.4234 61.2439 84.2803C61.417 84.39 61.5943 84.4787 61.7631 84.5631C61.9151 84.6391 62.0586 84.7108 62.181 84.7868C62.1979 84.7952 62.2148 84.8079 62.2317 84.8163C62.3752 84.8881 62.5103 84.9219 62.6496 84.9219C62.9999 84.9219 63.2194 84.7024 63.2912 84.6306L64.7348 83.187C64.8783 83.0435 65.1063 82.8704 65.3722 82.8704C65.6339 82.8704 65.8492 83.035 65.98 83.1785C65.9843 83.1828 65.9843 83.1828 65.9885 83.187L68.3143 85.5128C68.7491 85.9434 68.7491 86.3866 68.3185 86.834Z" fill="#F4AA56"></path> <path d="M61.8089 74.7579C62.9148 74.9436 63.9195 75.467 64.7215 76.2691C65.5235 77.0711 66.0427 78.0757 66.2327 79.1816C66.2791 79.4602 66.5197 79.6544 66.7941 79.6544C66.8278 79.6544 66.8574 79.6502 66.8912 79.646C67.2035 79.5953 67.4104 79.2998 67.3597 78.9875C67.1318 77.6494 66.4986 76.4295 65.532 75.4628C64.5653 74.4962 63.3454 73.863 62.0073 73.6351C61.6949 73.5844 61.4037 73.7913 61.3488 74.0994C61.2939 74.4075 61.4965 74.7072 61.8089 74.7579Z" fill="#F4AA56"></path> <path d="M70.9795 78.8224C70.6039 76.619 69.5655 74.6139 67.9699 73.0184C66.3743 71.4228 64.3692 70.3844 62.1658 70.0087C61.8577 69.9538 61.5664 70.1649 61.5115 70.473C61.4609 70.7854 61.6677 71.0766 61.9801 71.1315C63.9471 71.465 65.7411 72.3979 67.1679 73.8204C68.5946 75.2471 69.5233 77.0411 69.8567 79.0082C69.9032 79.2867 70.1438 79.4809 70.4181 79.4809C70.4519 79.4809 70.4815 79.4767 70.5152 79.4725C70.8234 79.426 71.0344 79.1306 70.9795 78.8224Z" fill="#F4AA56"></path> <defs> <filter id="filter0_d_722_51" x="16" y="35" width="90" height="90" filterUnits="userSpaceOnUse" color-interpolation-filters="sRGB"> <feFlood flood-opacity="0" result="BackgroundImageFix"></feFlood> <feColorMatrix in="SourceAlpha" type="matrix" values="0 0 0 0 0 0 0 0 0 0 0 0 0 0 0 0 0 0 127 0" result="hardAlpha"></feColorMatrix> <feOffset></feOffset> <feGaussianBlur stdDeviation="5"></feGaussianBlur> <feColorMatrix type="matrix" values="0 0 0 0 0 0 0 0 0 0 0 0 0 0 0 0 0 0 0.1 0"></feColorMatrix> <feBlend mode="normal" in2="BackgroundImageFix" result="effect1_dropShadow_722_51"></feBlend> <feBlend mode="normal" in="SourceGraphic" in2="effect1_dropShadow_722_51" result="shape"></feBlend> </filter> <linearGradient id="paint0_linear_722_51" x1="38" y1="0" x2="38" y2="78" gradientUnits="userSpaceOnUse"> <stop stop-color="#FECD72"></stop> <stop offset="1" stop-color="#F5AB56"></stop> </linearGradient> </defs> </svg> 