<?xml version="1.0" encoding="UTF-8"?> <svg xmlns="http://www.w3.org/2000/svg" width="111" height="123" viewBox="0 0 111 123" fill="none"> <path d="M38.376 58.024C34.68 62.776 29.448 65.152 22.68 65.152C15.912 65.152 10.68 62.776 6.984 58.024C3.288 53.224 1.44 46.816 1.44 38.8C1.44 30.784 3.288 24.4 6.984 19.648C10.68 14.848 15.912 12.448 22.68 12.448C29.448 12.448 34.68 14.848 38.376 19.648C42.072 24.4 43.92 30.784 43.92 38.8C43.92 46.816 42.072 53.224 38.376 58.024ZM15.84 38.8C15.84 47.056 18.12 51.184 22.68 51.184C27.24 51.184 29.52 47.056 29.52 38.8C29.52 30.544 27.24 26.416 22.68 26.416C18.12 26.416 15.84 30.544 15.84 38.8ZM66.5916 31.24C71.5836 31.24 75.7116 32.656 78.9756 35.488C82.2396 38.272 83.8716 42.304 83.8716 47.584C83.8716 53.2 82.0956 57.544 78.5436 60.616C74.9916 63.64 70.5276 65.152 65.1516 65.152C60.3996 65.152 56.3196 64.144 52.9116 62.128C49.5516 60.112 47.1516 57.136 45.7116 53.2L58.3836 45.928C59.3916 49.432 61.6476 51.184 65.1516 51.184C66.4476 51.184 67.4796 50.872 68.2476 50.248C69.0636 49.624 69.4716 48.712 69.4716 47.512C69.4716 45.16 68.0316 43.984 65.1516 43.984H48.5916L50.6796 13.6H80.9916V27.568H63.8556L63.5676 31.24H66.5916Z" fill="url(#paint0_linear_725_55)"></path> <g filter="url(#filter0_d_725_55)"> <ellipse cx="66" cy="78" rx="35" ry="35" transform="rotate(-180 66 78)" fill="white"></ellipse> </g> <path d="M78.0399 76.6517L77.3148 73.7514C77.513 73.7093 77.6618 73.5334 77.6618 73.3227V72.855C77.6618 71.8397 76.8357 71.0137 75.8204 71.0137H72.5178V70.0491C72.5178 69.5495 72.1113 69.1431 71.6117 69.1431H54.7766C54.277 69.1431 53.8705 69.5495 53.8705 70.0491V77.9991C53.8705 78.2412 54.0668 78.4375 54.309 78.4375C54.5511 78.4375 54.7474 78.2412 54.7474 77.9991V70.0491C54.7474 70.033 54.7605 70.0199 54.7766 70.0199H71.6116C71.6278 70.0199 71.6408 70.033 71.6408 70.0491V77.9992C71.6408 78.2413 71.8371 78.4376 72.0793 78.4376C72.3214 78.4376 72.5177 78.2413 72.5177 77.9992V77.5022H77.6894C77.6899 77.5022 77.6902 77.5023 77.6906 77.5023C77.691 77.5023 77.6914 77.5022 77.6918 77.5022C78.3282 77.5027 78.8686 77.9204 79.0542 78.4959H77.6909C77.4488 78.4959 77.2525 78.6922 77.2525 78.9344V79.8696C77.2525 80.6271 77.8687 81.2433 78.6262 81.2433H79.1231V83.1723H77.9767C77.6001 82.085 76.5665 81.3017 75.3527 81.3017C74.1389 81.3017 73.1052 82.085 72.7287 83.1723H72.5176V79.8696C72.5176 79.6275 72.3213 79.4312 72.0792 79.4312C71.8371 79.4312 71.6407 79.6274 71.6407 79.8696V83.1722H62.5447C62.1681 82.0849 61.1345 81.3016 59.9207 81.3016C58.7069 81.3016 57.6732 82.0849 57.2966 83.1722H54.7766C54.7605 83.1722 54.7474 83.1591 54.7474 83.143V82.1785H56.6472C56.8893 82.1785 57.0856 81.9822 57.0856 81.7401C57.0856 81.4979 56.8893 81.3016 56.6472 81.3016H52.4384C52.1963 81.3016 52 81.4979 52 81.7401C52 81.9822 52.1963 82.1785 52.4384 82.1785H53.8706V83.143C53.8706 83.6426 54.277 84.0491 54.7766 84.0491H57.1448C57.1447 84.0588 57.1441 84.0685 57.1441 84.0783C57.1441 85.6093 58.3897 86.8549 59.9207 86.8549C61.4516 86.8549 62.6973 85.6093 62.6973 84.0783C62.6973 84.0684 62.6966 84.0588 62.6965 84.0491H72.5769C72.5768 84.0588 72.5761 84.0685 72.5761 84.0783C72.5761 85.6093 73.8217 86.8549 75.3527 86.8549C76.8837 86.8549 78.1293 85.6093 78.1293 84.0783C78.1293 84.0684 78.1286 84.0588 78.1285 84.0491H79.5615C79.8036 84.0491 79.9999 83.8528 79.9999 83.6106V78.9343C80 77.7797 79.1481 76.8204 78.0399 76.6517ZM72.5178 71.8905H75.8204C76.3523 71.8905 76.785 72.3232 76.785 72.855V72.8842H72.5178V71.8905ZM72.5178 76.6254V73.761H76.4134L77.1295 76.6254H72.5178ZM59.9207 85.9782C58.8731 85.9782 58.0209 85.126 58.0209 84.0784C58.0209 83.0308 58.8731 82.1786 59.9207 82.1786C60.9682 82.1786 61.8205 83.0308 61.8205 84.0784C61.8205 85.126 60.9682 85.9782 59.9207 85.9782ZM75.3528 85.9782C74.3053 85.9782 73.453 85.126 73.453 84.0784C73.453 83.0308 74.3053 82.1786 75.3528 82.1786C76.4004 82.1786 77.2526 83.0308 77.2526 84.0784C77.2526 85.126 76.4004 85.9782 75.3528 85.9782ZM79.1232 80.3665H78.6263C78.3523 80.3665 78.1294 80.1436 78.1294 79.8696V79.3727H79.1231V80.3665H79.1232Z" fill="#F4AA56"></path> <path d="M59.9217 83.1729C59.4221 83.1729 59.0156 83.5793 59.0156 84.0789C59.0156 84.5785 59.4221 84.985 59.9217 84.985C60.4213 84.985 60.8278 84.5785 60.8278 84.0789C60.8278 83.5793 60.4213 83.1729 59.9217 83.1729Z" fill="#F4AA56"></path> <path d="M75.3514 83.1729C74.8518 83.1729 74.4453 83.5793 74.4453 84.0789C74.4453 84.5785 74.8518 84.985 75.3514 84.985C75.851 84.985 76.2574 84.5785 76.2574 84.0789C76.2574 83.5793 75.851 83.1729 75.3514 83.1729Z" fill="#F4AA56"></path> <path d="M70.208 81.3032H63.6611C63.419 81.3032 63.2227 81.4995 63.2227 81.7417C63.2227 81.9838 63.4189 82.1801 63.6611 82.1801H70.208C70.4501 82.1801 70.6465 81.9838 70.6465 81.7417C70.6465 81.4995 70.4502 81.3032 70.208 81.3032Z" fill="#F4AA56"></path> <path d="M58.9876 79.4326H53.3759C53.1338 79.4326 52.9375 79.6289 52.9375 79.871C52.9375 80.1132 53.1338 80.3095 53.3759 80.3095H58.9876C59.2297 80.3095 59.4261 80.1132 59.4261 79.871C59.4261 79.6289 59.2297 79.4326 58.9876 79.4326Z" fill="#F4AA56"></path> <path d="M67.2446 73.4799C67.0734 73.3088 66.7958 73.3088 66.6246 73.48L62.7258 77.3787L60.6976 75.3505C60.5264 75.1793 60.2488 75.1793 60.0776 75.3505C59.9064 75.5217 59.9064 75.7993 60.0776 75.9705L62.4159 78.3087C62.5014 78.3944 62.6137 78.4371 62.7258 78.4371C62.838 78.4371 62.9503 78.3944 63.0358 78.3087L67.2446 74.1C67.4158 73.9287 67.4158 73.6512 67.2446 73.4799Z" fill="#F4AA56"></path> <defs> <filter id="filter0_d_725_55" x="21" y="33" width="90" height="90" filterUnits="userSpaceOnUse" color-interpolation-filters="sRGB"> <feFlood flood-opacity="0" result="BackgroundImageFix"></feFlood> <feColorMatrix in="SourceAlpha" type="matrix" values="0 0 0 0 0 0 0 0 0 0 0 0 0 0 0 0 0 0 127 0" result="hardAlpha"></feColorMatrix> <feOffset></feOffset> <feGaussianBlur stdDeviation="5"></feGaussianBlur> <feColorMatrix type="matrix" values="0 0 0 0 0 0 0 0 0 0 0 0 0 0 0 0 0 0 0.1 0"></feColorMatrix> <feBlend mode="normal" in2="BackgroundImageFix" result="effect1_dropShadow_725_55"></feBlend> <feBlend mode="normal" in="SourceGraphic" in2="effect1_dropShadow_725_55" result="shape"></feBlend> </filter> <linearGradient id="paint0_linear_725_55" x1="42.5" y1="0" x2="42.5" y2="78" gradientUnits="userSpaceOnUse"> <stop stop-color="#FECD72"></stop> <stop offset="1" stop-color="#F5AB56"></stop> </linearGradient> </defs> </svg> 