<?xml version="1.0" encoding="UTF-8"?> <svg xmlns="http://www.w3.org/2000/svg" width="111" height="125" viewBox="0 0 111 125" fill="none"> <path d="M38.376 58.024C34.68 62.776 29.448 65.152 22.68 65.152C15.912 65.152 10.68 62.776 6.984 58.024C3.288 53.224 1.44 46.816 1.44 38.8C1.44 30.784 3.288 24.4 6.984 19.648C10.68 14.848 15.912 12.448 22.68 12.448C29.448 12.448 34.68 14.848 38.376 19.648C42.072 24.4 43.92 30.784 43.92 38.8C43.92 46.816 42.072 53.224 38.376 58.024ZM15.84 38.8C15.84 47.056 18.12 51.184 22.68 51.184C27.24 51.184 29.52 47.056 29.52 38.8C29.52 30.544 27.24 26.416 22.68 26.416C18.12 26.416 15.84 30.544 15.84 38.8ZM46.0884 64V53.488L62.5044 35.704C62.7924 35.368 63.2004 34.912 63.7284 34.336C64.3044 33.76 64.6884 33.352 64.8804 33.112C65.1204 32.872 65.4084 32.56 65.7444 32.176C66.1284 31.744 66.3684 31.408 66.4644 31.168C66.6084 30.88 66.7284 30.592 66.8244 30.304C66.9684 29.968 67.0404 29.632 67.0404 29.296C67.0404 28.48 66.7524 27.808 66.1764 27.28C65.6004 26.704 64.7604 26.416 63.6564 26.416C60.9684 26.416 58.9764 28.12 57.6804 31.528L45.0084 24.616C46.6884 20.632 49.1604 17.608 52.4244 15.544C55.7364 13.48 59.4084 12.448 63.4404 12.448C68.3844 12.448 72.6084 13.864 76.1124 16.696C79.6644 19.48 81.4404 23.344 81.4404 28.288C81.4404 31.312 80.7684 33.952 79.4244 36.208C78.1284 38.464 76.0644 41.176 73.2324 44.344L68.1204 50.032H82.5204V64H46.0884Z" fill="url(#paint0_linear_723_52)"></path> <g filter="url(#filter0_d_723_52)"> <ellipse cx="66" cy="80" rx="35" ry="35" transform="rotate(-180 66 80)" fill="white"></ellipse> </g> <g clip-path="url(#clip0_723_52)"> <path d="M69.9433 68.2531C68.3859 68.0688 66.8182 67.984 65.25 67.9993C59.6425 67.9993 55.25 70.1956 55.25 72.9993V79.666C55.25 81.9089 58.0763 83.7981 62.2396 84.4347C61.076 85.2747 59.846 86.1404 58.5496 87.0318C58.3322 87.181 58.1985 87.4246 58.1894 87.6881C58.1803 87.9516 58.2968 88.2038 58.5033 88.3676L64.0633 92.8164C64.3581 93.0515 64.7736 93.0609 65.0788 92.8393C66.0096 92.1614 66.9183 91.4531 67.8033 90.726C68.6644 90.0174 69.4978 89.2903 70.3033 88.5447C70.3075 88.5401 70.3133 88.5389 70.3171 88.5343L70.32 88.5293C71.1089 87.8001 71.865 87.059 72.5883 86.306C72.5971 86.2976 72.6088 86.2943 72.6167 86.2847C72.6246 86.2751 72.6233 86.271 72.6279 86.2647C73.1588 85.711 73.6763 85.1539 74.165 84.5935C75.5533 83.001 77.2808 81.0197 77.61 78.5793C77.9458 76.0901 77.4821 72.4014 75.0708 70.1972C73.5646 68.8156 71.6342 68.4693 69.9433 68.2531ZM65.25 68.8326C70.2188 68.8326 74.4167 70.741 74.4167 72.9993C74.4167 75.6997 69.0417 77.166 65.25 77.166C60.2813 77.166 56.0833 75.2576 56.0833 72.9993C56.0833 70.741 60.2813 68.8326 65.25 68.8326ZM56.0833 79.666V75.0301C57.6125 76.7939 61.0971 77.9993 65.25 77.9993C67.4406 78.0348 69.6176 77.6493 71.6629 76.8639C69.1058 79.2226 66.4076 81.4236 63.5833 83.4547V81.3326C63.5833 81.1025 63.3968 80.916 63.1667 80.916C62.9365 80.916 62.75 81.1025 62.75 81.3326V83.666C62.0472 83.5742 61.3512 83.4358 60.6667 83.2518V80.916C60.6667 80.6859 60.4801 80.4993 60.25 80.4993C60.0199 80.4993 59.8333 80.6859 59.8333 80.916V82.9993C59.257 82.8063 58.6992 82.5619 58.1667 82.2689V79.666C58.1667 79.4359 57.9801 79.2493 57.75 79.2493C57.5199 79.2493 57.3333 79.4359 57.3333 79.666V81.7206C56.5417 81.1031 56.0833 80.3972 56.0833 79.666ZM64.5833 92.166L59.0213 87.7189C59.6567 87.2822 60.3367 86.8097 61.0425 86.3126C61.409 86.5476 61.8484 86.641 62.2788 86.5756C62.5482 86.518 62.8295 86.577 63.0531 86.738C63.2767 86.8991 63.4218 87.1471 63.4525 87.421C63.6201 88.388 64.5288 89.0447 65.4996 88.9001C65.7694 88.845 66.05 88.9054 66.2732 89.0668C66.4964 89.2282 66.6417 89.4758 66.6738 89.7493C66.7202 89.9703 66.7994 90.183 66.9088 90.3806C66.1508 90.9918 65.375 91.5897 64.5833 92.166ZM76.7879 78.466C76.6915 79.1248 76.4927 79.7644 76.1988 80.3618L75.6063 79.5285C75.4728 79.3409 75.2125 79.2971 75.025 79.4306C74.8375 79.564 74.7936 79.8243 74.9271 80.0118L75.7567 81.1785C75.3551 81.8245 74.9073 82.4405 74.4167 83.0218L73.2571 81.696C73.1594 81.583 73.0087 81.5309 72.8621 81.5596C72.7155 81.5882 72.5954 81.6931 72.5474 81.8346C72.4993 81.976 72.5307 82.1323 72.6296 82.2443L73.87 83.666C73.7588 83.7947 73.6483 83.9218 73.5404 84.0451C73.1346 84.511 72.7071 84.9743 72.2713 85.4356L70.5213 83.9356C70.4092 83.832 70.2494 83.798 70.1049 83.8469C69.9603 83.8959 69.8541 84.0199 69.828 84.1703C69.8019 84.3206 69.86 84.4732 69.9796 84.5681L71.695 86.0401C71.1471 86.6006 70.5763 87.1547 69.9896 87.7026L68.0208 86.016C67.9077 85.9192 67.7515 85.8902 67.6112 85.9398C67.4708 85.9894 67.3676 86.1101 67.3403 86.2564C67.3131 86.4028 67.366 86.5526 67.4792 86.6493L69.375 88.2718C68.7917 88.8022 68.1846 89.3218 67.5692 89.8343C67.5342 89.7398 67.5051 89.6432 67.4821 89.5451C67.3149 88.5795 66.4071 87.9241 65.4379 88.0693C65.1672 88.1242 64.8858 88.0632 64.6621 87.9012C64.4383 87.7391 64.2927 87.4908 64.2604 87.2164C64.0956 86.2497 63.1854 85.5942 62.2163 85.7443C62.0916 85.7577 61.966 85.7584 61.8413 85.7464C66.5829 82.3714 72.2467 78.0131 74.3829 75.0681C74.9036 74.5184 75.2111 73.8009 75.25 73.0447C75.2717 71.7347 74.3517 70.6956 73.2546 69.9668C73.7124 70.187 74.1365 70.4713 74.5142 70.811C76.5467 72.6701 77.1208 75.9951 76.7879 78.466Z" fill="#F4AA56"></path> <path d="M65.2358 75.4988C66.9404 75.4988 69.7854 75.0096 70.5183 73.4654C71.0158 72.4171 70.152 71.3404 69.1787 70.6829C68.2602 70.101 67.2487 69.6808 66.1883 69.4404C65.8639 69.3582 65.5198 69.4239 65.2487 69.62C65.0827 69.7396 64.9517 69.9012 64.8691 70.0883C61.9754 70.1829 59.832 71.3188 59.832 72.7904C59.832 74.755 63.1137 75.4988 65.2358 75.4988ZM68.2954 74.1654L68.4445 71.2046C68.5373 71.2602 68.6269 71.317 68.7133 71.375C70.2783 72.43 70.2454 73.4342 68.2954 74.1654ZM65.6054 70.5333V70.5254C65.6125 70.4336 65.6597 70.3496 65.7345 70.2958C65.8054 70.2431 65.8965 70.2253 65.982 70.2475C66.5449 70.3872 67.0961 70.5701 67.6308 70.7946L67.4483 74.4221C66.7466 74.5848 66.0286 74.6665 65.3083 74.6654L65.6054 70.5333ZM64.742 70.9275L64.4758 74.6358C62.1795 74.47 60.6654 73.5783 60.6654 72.7904C60.6654 71.9667 62.3174 71.0446 64.742 70.9275Z" fill="#F4AA56"></path> <path d="M66.4987 72.166C66.2686 72.166 66.082 72.3526 66.082 72.5827V72.9993C66.082 73.2295 66.2686 73.416 66.4987 73.416C66.7288 73.416 66.9153 73.2295 66.9153 72.9993V72.5827C66.9153 72.3526 66.7288 72.166 66.4987 72.166Z" fill="#F4AA56"></path> <path d="M62.1772 88.0909C61.9975 87.9471 61.7352 87.9762 61.5914 88.1559C61.4476 88.3356 61.4767 88.5979 61.6564 88.7417L63.7397 90.4084C63.9194 90.5522 64.1817 90.5231 64.3255 90.3434C64.4694 90.1637 64.4403 89.9014 64.2605 89.7576L62.1772 88.0909Z" fill="#F4AA56"></path> </g> <defs> <filter id="filter0_d_723_52" x="21" y="35" width="90" height="90" filterUnits="userSpaceOnUse" color-interpolation-filters="sRGB"> <feFlood flood-opacity="0" result="BackgroundImageFix"></feFlood> <feColorMatrix in="SourceAlpha" type="matrix" values="0 0 0 0 0 0 0 0 0 0 0 0 0 0 0 0 0 0 127 0" result="hardAlpha"></feColorMatrix> <feOffset></feOffset> <feGaussianBlur stdDeviation="5"></feGaussianBlur> <feColorMatrix type="matrix" values="0 0 0 0 0 0 0 0 0 0 0 0 0 0 0 0 0 0 0.1 0"></feColorMatrix> <feBlend mode="normal" in2="BackgroundImageFix" result="effect1_dropShadow_723_52"></feBlend> <feBlend mode="normal" in="SourceGraphic" in2="effect1_dropShadow_723_52" result="shape"></feBlend> </filter> <linearGradient id="paint0_linear_723_52" x1="42" y1="0" x2="42" y2="78" gradientUnits="userSpaceOnUse"> <stop stop-color="#FECD72"></stop> <stop offset="1" stop-color="#F5AB56"></stop> </linearGradient> <clipPath id="clip0_723_52"> <rect width="25" height="25" fill="white" transform="translate(54 68)"></rect> </clipPath> </defs> </svg> 