<?xml version="1.0" encoding="UTF-8"?> <svg xmlns="http://www.w3.org/2000/svg" width="106" height="123" viewBox="0 0 106 123" fill="none"> <path d="M38.376 53.024C34.68 57.776 29.448 60.152 22.68 60.152C15.912 60.152 10.68 57.776 6.984 53.024C3.288 48.176 1.44 41.768 1.44 33.8C1.44 25.832 3.288 19.448 6.984 14.648C10.632 9.848 15.864 7.448 22.68 7.448C29.496 7.448 34.728 9.848 38.376 14.648C42.072 19.448 43.92 25.832 43.92 33.8C43.92 41.768 42.072 48.176 38.376 53.024ZM22.68 21.416C18.12 21.416 15.84 25.544 15.84 33.8C15.84 42.056 18.12 46.184 22.68 46.184C27.24 46.184 29.52 42.056 29.52 33.8C29.52 25.544 27.24 21.416 22.68 21.416ZM82.0547 38.696H87.0947V51.656H82.0547V59H67.9427V51.656H46.7747V38.696L60.6707 8.6H77.0147L62.9027 38.696H67.9427V31.64H82.0547V38.696Z" fill="url(#paint0_linear_725_54)"></path> <g filter="url(#filter0_d_725_54)"> <ellipse cx="61" cy="78" rx="35" ry="35" transform="rotate(-180 61 78)" fill="white"></ellipse> </g> <g clip-path="url(#clip0_725_54)"> <path d="M64.5664 74.0605C64.3508 74.0605 64.1758 74.2351 64.1758 74.451C64.1758 74.6668 64.3508 74.8416 64.5664 74.8416C64.7825 74.8416 64.957 74.6668 64.957 74.451C64.957 74.2351 64.7825 74.0605 64.5664 74.0605Z" fill="#F4AA56"></path> <path d="M57.4688 81.1577C57.2527 81.1577 57.0781 81.3327 57.0781 81.5483C57.0781 81.7644 57.2527 81.939 57.4688 81.939C57.6844 81.939 57.8594 81.7644 57.8594 81.5483C57.8594 81.3327 57.6844 81.1577 57.4688 81.1577Z" fill="#F4AA56"></path> <path d="M70.5336 70.4022C70.4017 70.3715 70.2632 70.4113 70.168 70.5075L68.5485 72.1397H67.7722L66.9175 71.2542V70.467L68.5137 68.847C68.6082 68.7512 68.6466 68.6134 68.6154 68.4823C68.5842 68.3514 68.4878 68.2458 68.3602 68.2028C67.9592 68.0676 67.5396 67.9991 67.1128 67.9991C65.8406 67.9991 64.6847 68.5923 63.9416 69.6267C63.2461 70.595 63.0317 71.7817 63.3389 72.9174L60.4615 75.7948L55.6678 70.9901V70.0471C55.6678 69.9099 55.5958 69.7827 55.4782 69.7122L52.7162 68.0548C52.5623 67.9624 52.3657 67.9867 52.239 68.1135L51.1343 69.2181C51.0076 69.3449 50.9834 69.5416 51.0755 69.6954L52.7326 72.4574C52.8031 72.575 52.9302 72.6469 53.0674 72.647L54.0101 72.6473L58.8043 77.452L55.9379 80.3184C54.8022 80.0114 53.6149 80.2261 52.6461 80.922C51.6123 81.6647 51.0195 82.8202 51.0195 84.0925C51.0195 84.5192 51.088 84.9389 51.2232 85.3398C51.2664 85.4681 51.3731 85.565 51.5049 85.5955C51.6369 85.6262 51.7753 85.5864 51.8707 85.4902L53.4899 83.8581H54.2706L55.16 84.7476V85.5282L53.5279 87.1475C53.4318 87.2428 53.392 87.3812 53.4226 87.5132C53.4532 87.6451 53.5501 87.7517 53.6784 87.7949C54.0792 87.9301 54.499 87.9986 54.9256 87.9986C56.1979 87.9986 57.3533 87.4057 58.0961 86.3719C58.7921 85.4031 59.0067 84.216 58.6997 83.0802L61.0018 80.7782L61.5292 81.351L61.2872 81.5928C61.1346 81.7454 61.1346 81.9928 61.2872 82.1453C61.4398 82.2978 61.687 82.2978 61.8397 82.1453L62.0588 81.9262L67.0066 87.3007C67.0103 87.3046 67.0141 87.3085 67.0179 87.3123C67.9335 88.2278 69.4168 88.2281 70.3327 87.3121C71.2461 86.3983 71.2461 84.9113 70.3327 83.9975C70.3288 83.9935 70.3247 83.9897 70.3205 83.9859L64.9377 79.0475L65.1544 78.8308C65.307 78.6784 65.307 78.431 65.1544 78.2785C65.0018 78.1259 64.7546 78.1259 64.6018 78.2785L64.3615 78.5189L63.7876 77.9922L66.1009 75.679C66.4297 75.7669 66.7691 75.8114 67.1128 75.8114C69.2668 75.8114 71.0189 74.0591 71.0189 71.9053C71.0189 71.4785 70.9504 71.0589 70.8152 70.6579C70.772 70.5296 70.6654 70.4327 70.5336 70.4022ZM54.4486 71.9808C54.3754 71.9074 54.2761 71.8701 54.1723 71.8701L53.2888 71.8698L51.9024 69.555L52.5758 68.8816L54.8866 70.2683V71.1518C54.8866 71.2553 54.9276 71.3545 55.0007 71.4277L59.9092 76.3473L59.3566 76.8997L54.4486 71.9808ZM64.3847 79.6005L69.7859 84.5555C70.3892 85.1652 70.3874 86.1525 69.7802 86.7599C69.1717 87.3684 68.1866 87.3703 67.5756 86.7652L62.6116 81.3732L64.3847 79.6005ZM63.8085 79.0718L62.082 80.798L61.5547 80.2252L63.2347 78.545L63.8085 79.0718ZM67.1128 75.0302C66.7712 75.0302 66.4352 74.9754 66.1145 74.8674C65.9739 74.8202 65.8186 74.8565 65.7136 74.9613C63.7553 76.9197 59.5356 81.1392 57.9818 82.6931C57.8768 82.7981 57.8404 82.9534 57.8878 83.0941C58.2125 84.0583 58.0572 85.0868 57.4615 85.9161C56.8675 86.743 55.9431 87.2174 54.9256 87.2174C54.8113 87.2174 54.6977 87.2111 54.5851 87.1991L55.8257 85.968C55.8996 85.8947 55.9413 85.7949 55.9413 85.6907V84.5857C55.9413 84.4821 55.9001 84.3827 55.8268 84.3095L54.7085 83.1912C54.6353 83.1179 54.5359 83.0767 54.4323 83.0767H53.3273C53.2231 83.0767 53.1233 83.1184 53.0499 83.1922L51.8189 84.4329C51.8067 84.3203 51.8006 84.2067 51.8006 84.0924C51.8006 83.0748 52.2749 82.1505 53.1019 81.5565C53.9311 80.9608 54.9597 80.8053 55.924 81.1302C56.0645 81.1776 56.2199 81.1412 56.3249 81.0362C56.3464 81.0148 64.0512 73.3099 64.0566 73.3044C64.1616 73.1994 64.1979 73.0442 64.1506 72.9035C63.8258 71.9393 63.9808 70.9112 64.5761 70.0825C65.1705 69.2549 66.0951 68.7803 67.1127 68.7803C67.2305 68.7803 67.3475 68.7869 67.4635 68.7997L66.2486 70.0328C66.1766 70.1058 66.1363 70.2043 66.1363 70.3068V71.4118C66.1363 71.5132 66.1755 71.6104 66.2458 71.6831L67.3251 72.8015C67.3986 72.8778 67.5001 72.9208 67.6062 72.9208H68.7112C68.8153 72.9208 68.9151 72.8793 68.9884 72.8053L70.2194 71.5647C70.2316 71.6773 70.2377 71.791 70.2377 71.9053C70.2377 73.6283 68.8359 75.0302 67.1128 75.0302Z" fill="#F4AA56"></path> <path d="M63.1861 75.2795L58.2979 80.1676C58.1455 80.3201 58.1455 80.5674 58.2979 80.72C58.4505 80.8726 58.6979 80.8726 58.8504 80.72L63.7386 75.8318C63.8912 75.6794 63.8912 75.4321 63.7386 75.2795C63.586 75.1269 63.3387 75.1269 63.1861 75.2795Z" fill="#F4AA56"></path> <path d="M68.1241 85.6559C68.2767 85.808 68.524 85.808 68.6766 85.655C68.8289 85.5022 68.8284 85.2549 68.6757 85.1026L65.1547 81.5929C65.002 81.4406 64.7545 81.4411 64.6023 81.5938C64.4499 81.7467 64.4504 81.9939 64.6031 82.1462L68.1241 85.6559Z" fill="#F4AA56"></path> </g> <defs> <filter id="filter0_d_725_54" x="16" y="33" width="90" height="90" filterUnits="userSpaceOnUse" color-interpolation-filters="sRGB"> <feFlood flood-opacity="0" result="BackgroundImageFix"></feFlood> <feColorMatrix in="SourceAlpha" type="matrix" values="0 0 0 0 0 0 0 0 0 0 0 0 0 0 0 0 0 0 127 0" result="hardAlpha"></feColorMatrix> <feOffset></feOffset> <feGaussianBlur stdDeviation="5"></feGaussianBlur> <feColorMatrix type="matrix" values="0 0 0 0 0 0 0 0 0 0 0 0 0 0 0 0 0 0 0.1 0"></feColorMatrix> <feBlend mode="normal" in2="BackgroundImageFix" result="effect1_dropShadow_725_54"></feBlend> <feBlend mode="normal" in="SourceGraphic" in2="effect1_dropShadow_725_54" result="shape"></feBlend> </filter> <linearGradient id="paint0_linear_725_54" x1="44" y1="0" x2="44" y2="78" gradientUnits="userSpaceOnUse"> <stop stop-color="#FECD72"></stop> <stop offset="1" stop-color="#F5AB56"></stop> </linearGradient> <clipPath id="clip0_725_54"> <rect width="19.9609" height="20" fill="white" transform="translate(51 68)"></rect> </clipPath> </defs> </svg> 